<svg width="2500" height="2500" viewBox="0 0 2500 2500" fill="none" xmlns="http://www.w3.org/2000/svg">
<rect x="25" y="25" width="2450" height="2450" rx="275" fill="#7F9C75" stroke="#222222" stroke-width="50"/>
<path d="M200 1400V1100H100V1050H400V1100H300V1400H200ZM450 1400V1050H800V1100H550V1200H750V1250H550V1350H800V1400H450ZM1000 1400V1100H900V1050H1200V1100H1100V1400H1000ZM1250 1400V1050H1550V1100H1600V1250H1500V1300H1550V1350H1600V1400H1450V1350H1400V1300H1350V1400H1250ZM1350 1250H1450V1200H1500V1100H1350V1250ZM1700 1400V1350H1800V1100H1700V1050H2000V1100H1900V1350H2000V1400H1700ZM2100 1400V1350H2050V1300H2150V1350H2300V1250H2100V1200H2050V1100H2100V1050H2350V1100H2400V1150H2300V1100H2150V1200H2350V1250H2400V1350H2350V1400H2100Z" fill="#222222"/>
<path d="M200 1400H195V1405H200V1400ZM200 1100H205V1095H200V1100ZM100 1100H95V1105H100V1100ZM100 1050V1045H95V1050H100ZM400 1050H405V1045H400V1050ZM400 1100V1105H405V1100H400ZM300 1100V1095H295V1100H300ZM300 1400V1405H305V1400H300ZM200 1400H205V1100H200H195V1400H200ZM200 1100V1095H100V1100V1105H200V1100ZM100 1100H105V1050H100H95V1100H100ZM100 1050V1055H400V1050V1045H100V1050ZM400 1050H395V1100H400H405V1050H400ZM400 1100V1095H300V1100V1105H400V1100ZM300 1100H295V1400H300H305V1100H300ZM300 1400V1395H200V1400V1405H300V1400ZM450 1400H445V1405H450V1400ZM450 1050V1045H445V1050H450ZM800 1050H805V1045H800V1050ZM800 1100V1105H805V1100H800ZM550 1100V1095H545V1100H550ZM550 1200H545V1205H550V1200ZM750 1200H755V1195H750V1200ZM750 1250V1255H755V1250H750ZM550 1250V1245H545V1250H550ZM550 1350H545V1355H550V1350ZM800 1350H805V1345H800V1350ZM800 1400V1405H805V1400H800ZM450 1400H455V1050H450H445V1400H450ZM450 1050V1055H800V1050V1045H450V1050ZM800 1050H795V1100H800H805V1050H800ZM800 1100V1095H550V1100V1105H800V1100ZM550 1100H545V1200H550H555V1100H550ZM550 1200V1205H750V1200V1195H550V1200ZM750 1200H745V1250H750H755V1200H750ZM750 1250V1245H550V1250V1255H750V1250ZM550 1250H545V1350H550H555V1250H550ZM550 1350V1355H800V1350V1345H550V1350ZM800 1350H795V1400H800H805V1350H800ZM800 1400V1395H450V1400V1405H800V1400ZM1000 1400H995V1405H1000V1400ZM1000 1100H1005V1095H1000V1100ZM900 1100H895V1105H900V1100ZM900 1050V1045H895V1050H900ZM1200 1050H1205V1045H1200V1050ZM1200 1100V1105H1205V1100H1200ZM1100 1100V1095H1095V1100H1100ZM1100 1400V1405H1105V1400H1100ZM1000 1400H1005V1100H1000H995V1400H1000ZM1000 1100V1095H900V1100V1105H1000V1100ZM900 1100H905V1050H900H895V1100H900ZM900 1050V1055H1200V1050V1045H900V1050ZM1200 1050H1195V1100H1200H1205V1050H1200ZM1200 1100V1095H1100V1100V1105H1200V1100ZM1100 1100H1095V1400H1100H1105V1100H1100ZM1100 1400V1395H1000V1400V1405H1100V1400ZM1250 1400H1245V1405H1250V1400ZM1250 1050V1045H1245V1050H1250ZM1550 1050H1555V1045H1550V1050ZM1550 1100H1545V1105H1550V1100ZM1600 1100H1605V1095H1600V1100ZM1600 1250V1255H1605V1250H1600ZM1500 1250V1245H1495V1250H1500ZM1500 1300H1495V1305H1500V1300ZM1550 1300H1555V1295H1550V1300ZM1550 1350H1545V1355H1550V1350ZM1600 1350H1605V1345H1600V1350ZM1600 1400V1405H1605V1400H1600ZM1450 1400H1445V1405H1450V1400ZM1450 1350H1455V1345H1450V1350ZM1400 1350H1395V1355H1400V1350ZM1400 1300H1405V1295H1400V1300ZM1350 1300V1295H1345V1300H1350ZM1350 1400V1405H1355V1400H1350ZM1350 1250H1345V1255H1350V1250ZM1450 1250V1255H1455V1250H1450ZM1450 1200V1195H1445V1200H1450ZM1500 1200V1205H1505V1200H1500ZM1500 1100H1505V1095H1500V1100ZM1350 1100V1095H1345V1100H1350ZM1250 1400H1255V1050H1250H1245V1400H1250ZM1250 1050V1055H1550V1050V1045H1250V1050ZM1550 1050H1545V1100H1550H1555V1050H1550ZM1550 1100V1105H1600V1100V1095H1550V1100ZM1600 1100H1595V1250H1600H1605V1100H1600ZM1600 1250V1245H1500V1250V1255H1600V1250ZM1500 1250H1495V1300H1500H1505V1250H1500ZM1500 1300V1305H1550V1300V1295H1500V1300ZM1550 1300H1545V1350H1550H1555V1300H1550ZM1550 1350V1355H1600V1350V1345H1550V1350ZM1600 1350H1595V1400H1600H1605V1350H1600ZM1600 1400V1395H1450V1400V1405H1600V1400ZM1450 1400H1455V1350H1450H1445V1400H1450ZM1450 1350V1345H1400V1350V1355H1450V1350ZM1400 1350H1405V1300H1400H1395V1350H1400ZM1400 1300V1295H1350V1300V1305H1400V1300ZM1350 1300H1345V1400H1350H1355V1300H1350ZM1350 1400V1395H1250V1400V1405H1350V1400ZM1350 1250V1255H1450V1250V1245H1350V1250ZM1450 1250H1455V1200H1450H1445V1250H1450ZM1450 1200V1205H1500V1200V1195H1450V1200ZM1500 1200H1505V1100H1500H1495V1200H1500ZM1500 1100V1095H1350V1100V1105H1500V1100ZM1350 1100H1345V1250H1350H1355V1100H1350ZM1700 1400H1695V1405H1700V1400ZM1700 1350V1345H1695V1350H1700ZM1800 1350V1355H1805V1350H1800ZM1800 1100H1805V1095H1800V1100ZM1700 1100H1695V1105H1700V1100ZM1700 1050V1045H1695V1050H1700ZM2000 1050H2005V1045H2000V1050ZM2000 1100V1105H2005V1100H2000ZM1900 1100V1095H1895V1100H1900ZM1900 1350H1895V1355H1900V1350ZM2000 1350H2005V1345H2000V1350ZM2000 1400V1405H2005V1400H2000ZM1700 1400H1705V1350H1700H1695V1400H1700ZM1700 1350V1355H1800V1350V1345H1700V1350ZM1800 1350H1805V1100H1800H1795V1350H1800ZM1800 1100V1095H1700V1100V1105H1800V1100ZM1700 1100H1705V1050H1700H1695V1100H1700ZM1700 1050V1055H2000V1050V1045H1700V1050ZM2000 1050H1995V1100H2000H2005V1050H2000ZM2000 1100V1095H1900V1100V1105H2000V1100ZM1900 1100H1895V1350H1900H1905V1100H1900ZM1900 1350V1355H2000V1350V1345H1900V1350ZM2000 1350H1995V1400H2000H2005V1350H2000ZM2000 1400V1395H1700V1400V1405H2000V1400ZM2100 1400H2095V1405H2100V1400ZM2100 1350H2105V1345H2100V1350ZM2050 1350H2045V1355H2050V1350ZM2050 1300V1295H2045V1300H2050ZM2150 1300H2155V1295H2150V1300ZM2150 1350H2145V1355H2150V1350ZM2300 1350V1355H2305V1350H2300ZM2300 1250H2305V1245H2300V1250ZM2100 1250H2095V1255H2100V1250ZM2100 1200H2105V1195H2100V1200ZM2050 1200H2045V1205H2050V1200ZM2050 1100V1095H2045V1100H2050ZM2100 1100V1105H2105V1100H2100ZM2100 1050V1045H2095V1050H2100ZM2350 1050H2355V1045H2350V1050ZM2350 1100H2345V1105H2350V1100ZM2400 1100H2405V1095H2400V1100ZM2400 1150V1155H2405V1150H2400ZM2300 1150H2295V1155H2300V1150ZM2300 1100H2305V1095H2300V1100ZM2150 1100V1095H2145V1100H2150ZM2150 1200H2145V1205H2150V1200ZM2350 1200H2355V1195H2350V1200ZM2350 1250H2345V1255H2350V1250ZM2400 1250H2405V1245H2400V1250ZM2400 1350V1355H2405V1350H2400ZM2350 1350V1345H2345V1350H2350ZM2350 1400V1405H2355V1400H2350ZM2100 1400H2105V1350H2100H2095V1400H2100ZM2100 1350V1345H2050V1350V1355H2100V1350ZM2050 1350H2055V1300H2050H2045V1350H2050ZM2050 1300V1305H2150V1300V1295H2050V1300ZM2150 1300H2145V1350H2150H2155V1300H2150ZM2150 1350V1355H2300V1350V1345H2150V1350ZM2300 1350H2305V1250H2300H2295V1350H2300ZM2300 1250V1245H2100V1250V1255H2300V1250ZM2100 1250H2105V1200H2100H2095V1250H2100ZM2100 1200V1195H2050V1200V1205H2100V1200ZM2050 1200H2055V1100H2050H2045V1200H2050ZM2050 1100V1105H2100V1100V1095H2050V1100ZM2100 1100H2105V1050H2100H2095V1100H2100ZM2100 1050V1055H2350V1050V1045H2100V1050ZM2350 1050H2345V1100H2350H2355V1050H2350ZM2350 1100V1105H2400V1100V1095H2350V1100ZM2400 1100H2395V1150H2400H2405V1100H2400ZM2400 1150V1145H2300V1150V1155H2400V1150ZM2300 1150H2305V1100H2300H2295V1150H2300ZM2300 1100V1095H2150V1100V1105H2300V1100ZM2150 1100H2145V1200H2150H2155V1100H2150ZM2150 1200V1205H2350V1200V1195H2150V1200ZM2350 1200H2345V1250H2350H2355V1200H2350ZM2350 1250V1255H2400V1250V1245H2350V1250ZM2400 1250H2395V1350H2400H2405V1250H2400ZM2400 1350V1345H2350V1350V1355H2400V1350ZM2350 1350H2345V1400H2350H2355V1350H2350ZM2350 1400V1395H2100V1400V1405H2350V1400Z" fill="#222222"/>
</svg>
