<svg width="2983" height="1983" viewBox="0 0 2983 1983" fill="none" xmlns="http://www.w3.org/2000/svg">
<g filter="url(#filter0_d_11_2)">
<mask id="path-1-outside-1_11_2" maskUnits="userSpaceOnUse" x="4" y="0" width="2975" height="1975" fill="black">
<rect fill="white" x="4" width="2975" height="1975"/>
<path d="M429 925V175H179V50H929V175H679V925H429Z"/>
<path d="M1054 925V50H1929V175H1304V425H1804V550H1304V800H1929V925H1054Z"/>
<path d="M2429 925V175H2179V50H2929V175H2679V925H2429Z"/>
<path d="M54 1925V1050H804V1175H929V1550H679V1675H804V1800H929V1925H554V1800H429V1675H304V1925H54ZM304 1550H554V1425H679V1175H304V1550Z"/>
<path d="M1179 1925V1800H1429V1175H1179V1050H1929V1175H1679V1800H1929V1925H1179Z"/>
<path d="M2179 1925V1800H2054V1675H2304V1800H2679V1550H2179V1425H2054V1175H2179V1050H2804V1175H2929V1300H2679V1175H2304V1425H2804V1550H2929V1800H2804V1925H2179Z"/>
</mask>
<path d="M429 925V175H179V50H929V175H679V925H429Z" fill="#FF0000"/>
<path d="M1054 925V50H1929V175H1304V425H1804V550H1304V800H1929V925H1054Z" fill="#FFA600"/>
<path d="M2429 925V175H2179V50H2929V175H2679V925H2429Z" fill="#FFFF00"/>
<path d="M54 1925V1050H804V1175H929V1550H679V1675H804V1800H929V1925H554V1800H429V1675H304V1925H54ZM304 1550H554V1425H679V1175H304V1550Z" fill="#00FF00"/>
<path d="M1179 1925V1800H1429V1175H1179V1050H1929V1175H1679V1800H1929V1925H1179Z" fill="#4000FF"/>
<path d="M2179 1925V1800H2054V1675H2304V1800H2679V1550H2179V1425H2054V1175H2179V1050H2804V1175H2929V1300H2679V1175H2304V1425H2804V1550H2929V1800H2804V1925H2179Z" fill="#EA00FF"/>
<path d="M429 925H379V975H429V925ZM429 175H479V125H429V175ZM179 175H129V225H179V175ZM179 50V0H129V50H179ZM929 50H979V0H929V50ZM929 175V225H979V175H929ZM679 175V125H629V175H679ZM679 925V975H729V925H679ZM429 925H479V175H429H379V925H429ZM429 175V125H179V175V225H429V175ZM179 175H229V50H179H129V175H179ZM179 50V100H929V50V0H179V50ZM929 50H879V175H929H979V50H929ZM929 175V125H679V175V225H929V175ZM679 175H629V925H679H729V175H679ZM679 925V875H429V925V975H679V925ZM1054 925H1004V975H1054V925ZM1054 50V0H1004V50H1054ZM1929 50H1979V0H1929V50ZM1929 175V225H1979V175H1929ZM1304 175V125H1254V175H1304ZM1304 425H1254V475H1304V425ZM1804 425H1854V375H1804V425ZM1804 550V600H1854V550H1804ZM1304 550V500H1254V550H1304ZM1304 800H1254V850H1304V800ZM1929 800H1979V750H1929V800ZM1929 925V975H1979V925H1929ZM1054 925H1104V50H1054H1004V925H1054ZM1054 50V100H1929V50V0H1054V50ZM1929 50H1879V175H1929H1979V50H1929ZM1929 175V125H1304V175V225H1929V175ZM1304 175H1254V425H1304H1354V175H1304ZM1304 425V475H1804V425V375H1304V425ZM1804 425H1754V550H1804H1854V425H1804ZM1804 550V500H1304V550V600H1804V550ZM1304 550H1254V800H1304H1354V550H1304ZM1304 800V850H1929V800V750H1304V800ZM1929 800H1879V925H1929H1979V800H1929ZM1929 925V875H1054V925V975H1929V925ZM2429 925H2379V975H2429V925ZM2429 175H2479V125H2429V175ZM2179 175H2129V225H2179V175ZM2179 50V0H2129V50H2179ZM2929 50H2979V0H2929V50ZM2929 175V225H2979V175H2929ZM2679 175V125H2629V175H2679ZM2679 925V975H2729V925H2679ZM2429 925H2479V175H2429H2379V925H2429ZM2429 175V125H2179V175V225H2429V175ZM2179 175H2229V50H2179H2129V175H2179ZM2179 50V100H2929V50V0H2179V50ZM2929 50H2879V175H2929H2979V50H2929ZM2929 175V125H2679V175V225H2929V175ZM2679 175H2629V925H2679H2729V175H2679ZM2679 925V875H2429V925V975H2679V925ZM54 1925H4V1975H54V1925ZM54 1050V1000H4V1050H54ZM804 1050H854V1000H804V1050ZM804 1175H754V1225H804V1175ZM929 1175H979V1125H929V1175ZM929 1550V1600H979V1550H929ZM679 1550V1500H629V1550H679ZM679 1675H629V1725H679V1675ZM804 1675H854V1625H804V1675ZM804 1800H754V1850H804V1800ZM929 1800H979V1750H929V1800ZM929 1925V1975H979V1925H929ZM554 1925H504V1975H554V1925ZM554 1800H604V1750H554V1800ZM429 1800H379V1850H429V1800ZM429 1675H479V1625H429V1675ZM304 1675V1625H254V1675H304ZM304 1925V1975H354V1925H304ZM304 1550H254V1600H304V1550ZM554 1550V1600H604V1550H554ZM554 1425V1375H504V1425H554ZM679 1425V1475H729V1425H679ZM679 1175H729V1125H679V1175ZM304 1175V1125H254V1175H304ZM54 1925H104V1050H54H4V1925H54ZM54 1050V1100H804V1050V1000H54V1050ZM804 1050H754V1175H804H854V1050H804ZM804 1175V1225H929V1175V1125H804V1175ZM929 1175H879V1550H929H979V1175H929ZM929 1550V1500H679V1550V1600H929V1550ZM679 1550H629V1675H679H729V1550H679ZM679 1675V1725H804V1675V1625H679V1675ZM804 1675H754V1800H804H854V1675H804ZM804 1800V1850H929V1800V1750H804V1800ZM929 1800H879V1925H929H979V1800H929ZM929 1925V1875H554V1925V1975H929V1925ZM554 1925H604V1800H554H504V1925H554ZM554 1800V1750H429V1800V1850H554V1800ZM429 1800H479V1675H429H379V1800H429ZM429 1675V1625H304V1675V1725H429V1675ZM304 1675H254V1925H304H354V1675H304ZM304 1925V1875H54V1925V1975H304V1925ZM304 1550V1600H554V1550V1500H304V1550ZM554 1550H604V1425H554H504V1550H554ZM554 1425V1475H679V1425V1375H554V1425ZM679 1425H729V1175H679H629V1425H679ZM679 1175V1125H304V1175V1225H679V1175ZM304 1175H254V1550H304H354V1175H304ZM1179 1925H1129V1975H1179V1925ZM1179 1800V1750H1129V1800H1179ZM1429 1800V1850H1479V1800H1429ZM1429 1175H1479V1125H1429V1175ZM1179 1175H1129V1225H1179V1175ZM1179 1050V1000H1129V1050H1179ZM1929 1050H1979V1000H1929V1050ZM1929 1175V1225H1979V1175H1929ZM1679 1175V1125H1629V1175H1679ZM1679 1800H1629V1850H1679V1800ZM1929 1800H1979V1750H1929V1800ZM1929 1925V1975H1979V1925H1929ZM1179 1925H1229V1800H1179H1129V1925H1179ZM1179 1800V1850H1429V1800V1750H1179V1800ZM1429 1800H1479V1175H1429H1379V1800H1429ZM1429 1175V1125H1179V1175V1225H1429V1175ZM1179 1175H1229V1050H1179H1129V1175H1179ZM1179 1050V1100H1929V1050V1000H1179V1050ZM1929 1050H1879V1175H1929H1979V1050H1929ZM1929 1175V1125H1679V1175V1225H1929V1175ZM1679 1175H1629V1800H1679H1729V1175H1679ZM1679 1800V1850H1929V1800V1750H1679V1800ZM1929 1800H1879V1925H1929H1979V1800H1929ZM1929 1925V1875H1179V1925V1975H1929V1925ZM2179 1925H2129V1975H2179V1925ZM2179 1800H2229V1750H2179V1800ZM2054 1800H2004V1850H2054V1800ZM2054 1675V1625H2004V1675H2054ZM2304 1675H2354V1625H2304V1675ZM2304 1800H2254V1850H2304V1800ZM2679 1800V1850H2729V1800H2679ZM2679 1550H2729V1500H2679V1550ZM2179 1550H2129V1600H2179V1550ZM2179 1425H2229V1375H2179V1425ZM2054 1425H2004V1475H2054V1425ZM2054 1175V1125H2004V1175H2054ZM2179 1175V1225H2229V1175H2179ZM2179 1050V1000H2129V1050H2179ZM2804 1050H2854V1000H2804V1050ZM2804 1175H2754V1225H2804V1175ZM2929 1175H2979V1125H2929V1175ZM2929 1300V1350H2979V1300H2929ZM2679 1300H2629V1350H2679V1300ZM2679 1175H2729V1125H2679V1175ZM2304 1175V1125H2254V1175H2304ZM2304 1425H2254V1475H2304V1425ZM2804 1425H2854V1375H2804V1425ZM2804 1550H2754V1600H2804V1550ZM2929 1550H2979V1500H2929V1550ZM2929 1800V1850H2979V1800H2929ZM2804 1800V1750H2754V1800H2804ZM2804 1925V1975H2854V1925H2804ZM2179 1925H2229V1800H2179H2129V1925H2179ZM2179 1800V1750H2054V1800V1850H2179V1800ZM2054 1800H2104V1675H2054H2004V1800H2054ZM2054 1675V1725H2304V1675V1625H2054V1675ZM2304 1675H2254V1800H2304H2354V1675H2304ZM2304 1800V1850H2679V1800V1750H2304V1800ZM2679 1800H2729V1550H2679H2629V1800H2679ZM2679 1550V1500H2179V1550V1600H2679V1550ZM2179 1550H2229V1425H2179H2129V1550H2179ZM2179 1425V1375H2054V1425V1475H2179V1425ZM2054 1425H2104V1175H2054H2004V1425H2054ZM2054 1175V1225H2179V1175V1125H2054V1175ZM2179 1175H2229V1050H2179H2129V1175H2179ZM2179 1050V1100H2804V1050V1000H2179V1050ZM2804 1050H2754V1175H2804H2854V1050H2804ZM2804 1175V1225H2929V1175V1125H2804V1175ZM2929 1175H2879V1300H2929H2979V1175H2929ZM2929 1300V1250H2679V1300V1350H2929V1300ZM2679 1300H2729V1175H2679H2629V1300H2679ZM2679 1175V1125H2304V1175V1225H2679V1175ZM2304 1175H2254V1425H2304H2354V1175H2304ZM2304 1425V1475H2804V1425V1375H2304V1425ZM2804 1425H2754V1550H2804H2854V1425H2804ZM2804 1550V1600H2929V1550V1500H2804V1550ZM2929 1550H2879V1800H2929H2979V1550H2929ZM2929 1800V1750H2804V1800V1850H2929V1800ZM2804 1800H2754V1925H2804H2854V1800H2804ZM2804 1925V1875H2179V1925V1975H2804V1925Z" fill="white" mask="url(#path-1-outside-1_11_2)"/>
</g>
<defs>
<filter id="filter0_d_11_2" x="0" y="0" width="2983" height="1983" filterUnits="userSpaceOnUse" color-interpolation-filters="sRGB">
<feFlood flood-opacity="0" result="BackgroundImageFix"/>
<feColorMatrix in="SourceAlpha" type="matrix" values="0 0 0 0 0 0 0 0 0 0 0 0 0 0 0 0 0 0 127 0" result="hardAlpha"/>
<feOffset dy="4"/>
<feGaussianBlur stdDeviation="2"/>
<feComposite in2="hardAlpha" operator="out"/>
<feColorMatrix type="matrix" values="0 0 0 0 0 0 0 0 0 0 0 0 0 0 0 0 0 0 0.25 0"/>
<feBlend mode="normal" in2="BackgroundImageFix" result="effect1_dropShadow_11_2"/>
<feBlend mode="normal" in="SourceGraphic" in2="effect1_dropShadow_11_2" result="shape"/>
</filter>
</defs>
</svg>
